<?xml version="1.0" encoding="UTF-8"?>
<!DOCTYPE svg  PUBLIC '-//W3C//DTD SVG 1.1//EN'  'http://www.w3.org/Graphics/SVG/1.1/DTD/svg11.dtd'>
<svg enable-background="new 0 0 45 45.15" version="1.1" viewBox="0 0 45 45.15" xml:space="preserve" xmlns="http://www.w3.org/2000/svg" xmlns:xlink="http://www.w3.org/1999/xlink">
<symbol id="k" viewBox="-13.85 0.012 27.711 27.711">
			<use transform="matrix(.0847 0 0 .0847 -13.85 27.85)" y="-328.6" width="327.1" height="327.1" xlink:href="#l"/>
</symbol>
<symbol id="l" clip-rule="evenodd" fill-rule="evenodd" viewBox="0 -328.6 327.1 327.1">
				<radialGradient id="g" cx="114.6" cy="-92.75" r="247.62" gradientTransform="matrix(1 0 0 .7154 0 -26.397)" gradientUnits="userSpaceOnUse">
				<stop stop-color="#FCFEF1" stop-opacity=".9922" offset=".3686"/>
				<stop stop-color="#D0BCA3" offset="1"/>
			</radialGradient>
			<path d="m294.4-165.1c0 36.133-12.767 66.983-38.3 92.55-25.533 25.533-56.367 38.3-92.5 38.3s-66.983-12.767-92.55-38.3c-25.533-25.567-38.3-56.417-38.3-92.55 0-36.1 12.767-66.933 38.3-92.5 25.567-25.533 56.417-38.3 92.55-38.3s66.967 12.767 92.5 38.3c25.53 25.57 38.3 56.4 38.3 92.5zm-15.2 115.7c31.933-31.934 47.9-70.483 47.9-115.65s-15.967-83.717-47.9-115.65c-31.934-31.933-70.483-47.9-115.65-47.9s-83.716 15.967-115.65 47.9c-31.933 31.93-47.9 70.48-47.9 115.65s15.967 83.717 47.9 115.65 70.48 47.9 115.65 47.9 83.72-15.967 115.65-47.9z" fill="url(#g)"/>
			<radialGradient id="h" cx="151" cy="-125.5" r="149.72" gradientUnits="userSpaceOnUse">
				<stop stop-color="#C2B299" stop-opacity=".9922" offset=".3216"/>
				<stop stop-color="#E3D9CD" offset=".6745"/>
				<stop stop-color="#EDE3D9" offset=".7686"/>
				<stop stop-color="#D0BCA3" offset="1"/>
			</radialGradient>
			<path d="m294.4-165.1c0-36.1-12.767-66.933-38.3-92.5-25.533-25.533-56.367-38.3-92.5-38.3s-66.983 12.767-92.55 38.3c-25.533 25.567-38.3 56.4-38.3 92.5 0 36.133 12.767 66.983 38.3 92.55 25.567 25.533 56.417 38.3 92.55 38.3s66.967-12.767 92.5-38.3c25.53-25.567 38.3-56.42 38.3-92.55z" fill="url(#h)"/>
			<path d="m211.05-40.85v2.15c0 5.233 1.6 9.184 4.8 11.85 2.867 2.367 6.4 3.35 10.6 2.95 4.133-0.4 7.667-1.967 10.6-4.7 3.2-3.033 4.8-6.767 4.8-11.2 0-3.733-1.184-6.967-3.55-9.7-2.833-3.3-6.816-4.95-11.95-4.95-7 0-11.667 2.717-14 8.15-0.7 1.667-1.13 3.483-1.3 5.45zm-152.98-151.93c-0.277-0.458-0.568-0.917-0.875-1.375-4.267-6.3-10.667-9.45-19.2-9.45-12.1 0-19.65 4.05-22.65 12.15-0.967 2.567-1.417 5.383-1.35 8.45 0.267 2.567 0.4 3.867 0.4 3.9 0 9.5 2.467 16.317 7.4 20.45 3.649 3.074 8.174 4.349 13.575 3.825 0.872-0.075 1.763-0.2 2.675-0.375 6.167-1.2 11.567-4.083 16.2-8.65 4.933-4.867 7.4-10.167 7.4-15.9 0-4.61-1.192-8.95-3.575-13.01z" fill="#fff"/>
				<radialGradient id="i" cx="110.95" cy="-56.4" r="193.47" gradientTransform="matrix(.866 -.5 .3135 .543 32.544 29.7)" gradientUnits="userSpaceOnUse">
				<stop stop-color="#fff" stop-opacity=".6" offset=".3765"/>
				<stop stop-color="#D8BCA7" stop-opacity=".5608" offset=".6"/>
				<stop stop-color="#E1CBB3" stop-opacity=".251" offset=".8667"/>
			</radialGradient>
			<path d="m58.075-192.78c2.383 4.051 3.575 8.393 3.575 13.025 0 5.733-2.467 11.033-7.4 15.9-4.633 4.567-10.033 7.45-16.2 8.65-0.912 0.175-1.803 0.3-2.675 0.375-0.569 3.252-0.977 6.66-1.225 10.225-1.633 23.967 4.617 48.184 18.75 72.65 14.1 24.453 31.95 41.97 53.55 52.57 21.6 10.566 40.6 11.117 57 1.65 16.367-9.467 25.383-26.183 27.05-50.15 1.6-24-4.65-48.217-18.75-72.65-14.133-24.467-31.983-41.983-53.55-52.55-21.6-10.566-40.583-11.117-56.95-1.65-1.092 0.63-2.15 1.29-3.175 1.97z" fill="url(#i)"/>
				<radialGradient id="j" cx="19481" cy="-8055.3" r="79.231" gradientTransform="matrix(-.7071 .7071 .5178 .5178 18038 -9855.5)" gradientUnits="userSpaceOnUse">
				<stop stop-color="#FFFFE1" stop-opacity=".5922" offset=".3333"/>
				<stop stop-color="#F6ECD3" stop-opacity=".2706" offset="1"/>
			</radialGradient>
			<path d="m130.85-264.2c0.267-4.966 1.583-9.617 3.95-13.95 10.5-19.3 27.133-25.65 49.9-19.05l3.35-6.45c-7.7-5.467-16.75-7.733-27.15-6.8-33.833 3.167-64.533 14.75-92.1 34.75-15.566 11.267-20.933 25.6-16.1 43 2.333 8.367 7.683 13.167 16.05 14.4 34.17 4.5 54.87-10.8 62.1-45.9z" fill="url(#j)"/>
</symbol>
<use transform="matrix(1 0 0 -1 22.95 45.15)" x="-13.85" y="0.012" width="27.711" height="27.711" xlink:href="#k"/>
</svg>
